<svg width="281" height="81" viewBox="0 0 281 81" fill="none" xmlns="http://www.w3.org/2000/svg">
<path d="M57.8816 0.867523H15.3422C7.22885 0.867523 0.651688 7.44468 0.651688 15.558V58.0975C0.651688 66.2108 7.22885 72.7879 15.3422 72.7879H57.8816C65.9949 72.7879 72.5721 66.2108 72.5721 58.0975V15.558C72.5721 7.44468 65.9949 0.867523 57.8816 0.867523Z" fill="#59AE16"/>
<path d="M119.535 45.6063C119.457 48.7838 118.568 51.8887 116.952 54.6257C114.994 58.1585 111.904 60.9304 108.18 62.496C104.496 63.9248 100.591 64.6984 96.6403 64.7818L84.6186 64.9053L97.4805 65.0165C105.215 65.0165 111.446 62.4343 116.174 57.2697C111.891 62.7226 105.178 65.4448 96.0349 65.4366C86.892 65.4284 82.164 65.3913 81.851 65.3254C81.1715 64.6829 80.4919 64.0157 79.8124 63.3362C79.106 62.7624 78.6355 61.9488 78.4903 61.0505C78.3297 58.2458 78.305 54.5268 78.4286 49.9307C78.5439 43.1929 78.6015 39.4492 78.6015 38.6996C78.6015 37.0935 78.6015 34.6842 78.3915 31.4841C78.1815 28.2841 78.1815 25.8748 78.1815 24.2686C78.1815 22.1435 78.1815 19.9566 78.305 17.7203L78.7869 17.7821C79.5035 19.4295 79.9153 24.6558 80.0224 33.461C80.2034 33.1331 80.285 32.7596 80.2572 32.3861C80.2572 32.1884 80.1006 24.6928 79.7876 9.89937C80.016 10.3765 80.1742 10.8843 80.2572 11.4067C80.2572 13.0129 80.3601 15.4387 80.566 18.684C81.1223 21.8232 81.5018 24.9912 81.7027 28.1729C81.7027 28.6918 81.7027 29.4084 81.5915 30.4586C81.4803 31.5088 81.468 32.2255 81.468 32.7444C82.024 32.3861 82.3081 32.0772 82.3081 31.8425L82.2464 24.5034C82.8978 26.5639 83.2026 28.7183 83.1483 30.8787L82.9383 38.0943L83.7784 58.3446V50.709C83.7784 50.0295 83.7043 49.0164 83.556 47.6449C83.4078 46.2735 83.346 45.2603 83.346 44.5808V42.5422L83.8278 42.8387V42.4186C83.8278 41.702 83.8278 40.7012 83.7414 39.441C83.6549 38.1807 83.6549 37.2294 83.6549 36.5869C83.6511 35.6041 83.7089 34.6219 83.8278 33.6463L84.1367 33.3992C84.9871 36.4957 85.4315 39.6895 85.4587 42.9005C85.4587 46.0634 85.4587 49.2305 85.4587 52.4017C85.4587 53.0813 85.4588 54.0697 85.3352 55.3794C85.2116 56.689 85.2116 57.6527 85.2116 58.2829L97.0604 58.8883C101.282 59.2864 105.51 58.2031 109.02 55.8241C110.743 54.6268 112.132 53.0106 113.057 51.1279C113.983 49.2451 114.413 47.1578 114.308 45.0627C114.414 42.726 113.736 40.4212 112.381 38.5143C110.952 36.7106 109.12 35.2675 107.031 34.3012C107.031 34.1035 107.031 33.6463 106.908 32.9174C106.841 32.459 106.804 31.9967 106.796 31.5336V31.1135L110.639 27.4069C111.681 25.8476 112.189 23.9916 112.084 22.1188C112.123 20.1687 111.669 18.2405 110.764 16.5126C109.859 14.7848 108.533 13.3133 106.908 12.2345C103.72 9.96378 99.8858 8.78097 95.9731 8.86152C94.4822 8.75621 92.9976 8.57476 91.5252 8.31788H93.2673C96.8401 8.24923 100.398 8.80106 103.782 9.9488C106.258 10.8489 108.386 12.5097 109.861 14.6932C111.418 16.8514 112.256 19.445 112.257 22.1064C112.229 24.4512 111.544 26.7411 110.281 28.7166V28.8277C111.87 27.7899 112.669 25.5495 112.678 22.1064C112.735 19.0927 111.69 16.1618 109.737 13.8654C107.743 11.5927 105.134 9.94507 102.225 9.12099C99.414 8.54274 96.5565 8.22019 93.6874 8.15728C89.363 7.86899 86.9785 7.58892 86.5337 7.3171L87.2503 7.25532L81.6657 6.83525C82.1105 6.35339 84.0749 6.10629 87.5592 6.10629C89.0047 6.10629 90.7839 6.10628 92.909 6.29161L96.455 6.41517L85.3352 5.93331L85.1499 5.68621C85.5844 5.48044 86.0539 5.35885 86.5337 5.32789H95.6643C100.816 5.10043 105.898 6.58161 110.12 9.54107C112.15 11.0094 113.785 12.9588 114.876 15.2145C115.967 17.4701 116.481 19.9614 116.372 22.4647C116.359 25.0429 115.741 27.582 114.568 29.8779C114.438 29.8109 114.294 29.773 114.148 29.7667C113.79 29.7667 113.394 30.0386 112.912 30.6069C112.43 31.1753 112.035 31.7189 111.949 31.8425C114.144 33.4761 116.071 35.4439 117.657 37.6742C118.986 40.1008 119.635 42.8414 119.535 45.6063ZM81.4309 16.3859C81.3614 16.8043 81.2623 17.2171 81.1344 17.6215L80.4054 8.12019C81.1699 10.8064 81.5157 13.5944 81.4309 16.3859ZM82.0363 24.9235C81.9128 24.491 81.7274 23.8238 81.4927 22.9466L81.7274 22.3412C81.9251 23.1814 82.0363 23.5767 82.0363 23.6632V24.9235ZM83.7784 60.7539V60.6304C83.8002 60.4785 83.7766 60.3237 83.7107 60.1852C83.6448 60.0467 83.5394 59.9308 83.4078 59.852V60.7539H83.7784ZM84.5568 60.7539L84.0749 60.5686L83.8896 60.7539H84.5568ZM100.792 60.5068H100.359C99.8421 60.5592 99.3222 60.5798 98.8025 60.5686C98.2836 60.5686 94.6388 60.3503 87.868 59.9138C87.5839 59.9138 87.1761 59.9138 86.6325 59.9138L85.5576 59.9755L85.4093 59.9632V60.618L95.2936 60.9269L100.792 60.5068ZM108.6 44.3461C108.6 48.275 106.998 50.8202 103.794 51.9816C102.948 52.3237 102.058 52.5442 101.15 52.6365L99.0002 52.55C102.274 52.2288 104.548 51.6357 105.783 50.7461C107.389 49.5847 108.254 47.509 108.254 44.4943C108.254 43.9859 108.17 43.4809 108.007 42.9993C107.735 46.1952 107.196 48.378 106.389 49.5477C105.314 51.228 103.238 52.0187 100.211 52.0187C98.7654 52.0187 97.8882 51.821 97.567 51.4256C97.078 51.3372 96.5951 51.2176 96.1214 51.0674L94.5029 51.784L94.6264 52.3894C94.2838 52.0693 93.8537 51.8586 93.3909 51.784V51.4256L93.0326 51.0674L92.3654 51.4874L92.6125 52.4511L92.316 52.1423L92.1924 52.3276L91.8341 51.9075V51.4256L92.1924 51.4874V51.3145C92.1877 51.0302 92.1462 50.7478 92.0689 50.4743L91.8341 50.5361V49.8689C91.9018 49.8692 91.9687 49.8554 92.0307 49.8281C92.0926 49.8009 92.1481 49.7609 92.1936 49.7107C92.239 49.6606 92.2734 49.6015 92.2945 49.5372C92.3156 49.4729 92.3229 49.4049 92.316 49.3376C92.3058 49.243 92.262 49.1553 92.1924 49.0905C91.6735 49.0905 91.414 49.3376 91.414 49.8071C91.4264 50.0614 91.4637 50.3138 91.5252 50.5608C91.5845 50.7668 91.6259 50.9777 91.6488 51.1909C91.6778 51.3294 91.6778 51.4725 91.6488 51.611C91.2383 51.3163 90.959 50.873 90.8704 50.3755C90.7816 49.8407 90.7608 49.2969 90.8086 48.7569C90.8951 47.7932 90.9322 47.2866 90.9322 47.2496C90.893 46.351 90.7731 45.4578 90.5739 44.5808C90.3704 43.7209 90.2463 42.8441 90.2032 41.9615C90.2032 38.8726 91.1875 37.3282 93.1561 37.3282H94.96H96.7639C96.4056 37.3282 95.7137 37.1676 94.7129 36.9576C94.0623 36.8204 93.4007 36.7418 92.736 36.7228C92.1407 36.7527 91.5793 37.009 91.1669 37.4394C90.8086 37.8842 90.4256 38.329 90.0302 38.7614V42.1962C90.0752 42.8133 90.1744 43.4252 90.3268 44.0248C90.5037 44.6594 90.5664 45.3204 90.5121 45.9769H89.9684C89.9897 46.6251 90.0683 47.2701 90.2032 47.9044C90.1553 48.2672 90.0334 48.6162 89.8449 48.9299C88.8441 48.6457 88.3499 46.8789 88.3499 43.6294C88.3644 43.2159 88.4015 42.8034 88.4611 42.3939C88.5292 41.9852 88.5705 41.5725 88.5846 41.1584C88.5574 40.7809 88.487 40.4078 88.3746 40.0464C88.2661 39.7051 88.1956 39.3529 88.1646 38.9962C88.1646 38.0695 89.4001 36.7352 92.0071 34.9684C92.2542 35.059 94.5811 35.4214 98.9878 36.0556C101.339 36.3008 103.612 37.0375 105.66 38.2178C106.627 38.9082 107.404 39.8321 107.918 40.9037C108.432 41.9752 108.667 43.1594 108.6 44.3461ZM105.598 22.2794C105.598 27.1351 103.127 29.5567 98.3206 29.5567C97.6027 29.5284 96.8938 29.3866 96.2202 29.1366C98.1799 29.2256 100.142 29.0427 102.052 28.593C102.994 28.3345 103.809 27.7383 104.339 26.918C104.87 26.0976 105.081 25.1106 104.931 24.1451V23.0702C104.741 24.7344 104.051 26.3021 102.954 27.5675C101.654 28.5737 100.019 29.0464 98.3824 28.8895C97.8404 28.8739 97.2998 28.8243 96.7639 28.7413L95.133 28.5312C94.7917 28.1443 94.37 27.8365 93.8974 27.6293C93.6583 27.7595 93.438 27.9216 93.2426 28.1111C93.4097 28.3768 93.5504 28.6582 93.6627 28.9513C93.5762 28.8401 93.4032 28.5312 93.1191 28.0494L92.4519 28.3582C92.6957 28.5158 92.8855 28.7444 92.9955 29.0131L92.699 28.7166V29.0131L91.9824 28.3582V27.9876L92.8225 27.6911C92.699 27.4934 92.5384 27.2092 92.3407 26.8509V27.4563L91.9824 27.0856V26.7273H92.4642C92.3369 26.5564 92.2716 26.3473 92.2789 26.1343C92.3273 25.7458 92.4058 25.3616 92.5136 24.9852L91.7353 25.047C91.656 25.1729 91.6132 25.3183 91.6117 25.4671C91.628 25.7015 91.6695 25.9334 91.7353 26.159C91.8029 26.363 91.8444 26.5747 91.8588 26.7891H91.587C91.0681 26.7891 90.7839 26.3937 90.7468 25.4671C90.8333 26.9497 90.8704 26.332 90.8704 23.6014C90.8286 22.8619 90.7085 22.1288 90.5121 21.4145C90.3116 20.7175 90.1874 20.0009 90.1414 19.2771C90.2063 18.6553 90.4367 18.0622 90.8086 17.5597C91.2534 16.8678 91.6488 16.5095 92.0441 16.5095C92.5207 16.5249 92.9955 16.5745 93.465 16.6577C93.9292 16.7504 94.4004 16.8041 94.8735 16.8184C95.6219 16.8225 96.3682 16.7396 97.0975 16.5713C94.3669 16.1759 92.9214 15.9658 92.7731 15.9658C92.0949 16.0382 91.4643 16.3491 90.9939 16.8431C90.723 17.035 90.4951 17.2814 90.3249 17.5665C90.1547 17.8516 90.0459 18.1691 90.0055 18.4987C89.9367 19.7209 90.1002 20.9451 90.4874 22.1064V22.403L89.9437 22.4647C89.9528 22.7383 89.9817 23.0108 90.0302 23.2802C90.0816 23.5658 90.1105 23.855 90.1167 24.1451V24.6269L89.7461 24.7505C88.8318 24.0215 88.3746 22.6872 88.3746 20.7227C88.3746 18.7582 89.6101 16.7689 92.1553 14.4091L93.2426 14.1125C94.3113 14.4891 95.4172 14.75 96.5415 14.8909C98.3083 15.1257 99.4326 15.311 99.9145 15.4346C101.509 15.7868 102.942 16.6555 103.992 17.9056C105.051 19.1137 105.624 20.6727 105.598 22.2794ZM93.5762 50.2395V48.8434H93.2055V49.0781C93.2055 49.2758 93.0449 49.4859 92.736 49.6835C92.4272 49.8812 92.2542 50.0789 92.2542 50.289C92.685 50.1701 93.1377 50.1532 93.5762 50.2395ZM94.0581 50.5978V50.289L92.6125 50.4743L92.8472 50.8944C93.2591 50.8331 93.6645 50.7338 94.0581 50.5978ZM94.231 26.9744C94.0146 26.2463 93.8535 25.5029 93.7492 24.7505L93.5762 25.5289C93.6819 25.668 93.7422 25.8362 93.7492 26.0107C93.7492 26.4061 93.4897 26.5914 92.9708 26.5544L93.5144 26.7891C93.3043 27.0431 93.0816 27.2864 92.8472 27.5181L93.1561 27.6293C93.5506 27.4769 93.9146 27.2551 94.231 26.9744ZM104.115 45.248C104.157 44.8136 104.097 44.3754 103.941 43.968C103.784 43.5606 103.535 43.1952 103.213 42.9005C102.497 42.4186 101.792 41.9368 101.113 41.4549C99.6773 41.2922 98.2334 41.2139 96.7886 41.2201C96.623 41.2252 96.4587 41.1895 96.31 41.1163C96.1614 41.043 96.033 40.9345 95.9361 40.8001C95.7154 40.537 95.517 40.256 95.343 39.9599V41.5167C96.9315 41.5088 98.5181 41.6287 100.087 41.875L100.211 42.1221L95.2689 41.8132V48.8434H94.0334C94.0707 49.2833 94.0707 49.7255 94.0334 50.1654H94.6264C94.827 50.1342 95.0291 50.1135 95.2318 50.1036C95.2808 50.0949 95.3312 50.0981 95.3786 50.113C95.4261 50.128 95.4693 50.1541 95.5044 50.1893C95.5396 50.2245 95.5658 50.2676 95.5807 50.3151C95.5956 50.3626 95.5989 50.413 95.5901 50.4619C95.3924 50.7832 94.9476 50.9067 94.2681 50.8203V51.2403H94.577C95.2821 51.2474 95.9647 50.9919 96.4921 50.5237C97.9006 50.5237 99.235 50.5237 100.52 50.3384H99.9763C99.0543 50.3807 98.1305 50.3227 97.221 50.1654L97.0357 49.8565C97.9339 49.4663 98.8894 49.2242 99.8651 49.1399C100.891 49.0545 101.89 48.7691 102.806 48.2998C103.271 47.9503 103.635 47.4837 103.861 46.9475C104.086 46.4114 104.166 45.8249 104.091 45.248H104.115ZM94.4781 38.9591C94.351 39.1255 94.2471 39.3084 94.1693 39.5028L94.3546 39.441L94.4781 38.9591ZM100.903 23.2061C100.642 22.3339 100.224 21.5172 99.6674 20.7968C99.1385 20.7048 98.6147 20.5852 98.0983 20.4385H95.1577V20.8586C96.4499 20.786 97.7457 20.911 99.0002 21.2292L99.1855 21.4022L98.8272 21.464C98.3129 21.2433 97.7554 21.1419 97.1963 21.1674C96.8783 21.1704 96.5607 21.191 96.245 21.2292H95.2936V23.6261C95.2936 23.3049 95.4171 24.0833 95.6519 25.9737H97.9376C98.8405 25.7148 99.724 25.3928 100.582 25.01C100.801 24.4472 100.911 23.8473 100.903 23.2431V23.2061ZM100.483 38.1684H97.2334C97.6411 38.1684 98.4689 38.2425 99.8898 38.4031L100.483 38.1684ZM100.236 17.955C99.6698 17.6723 99.0597 17.4884 98.4319 17.4114H97.4064C97.8766 17.4318 98.3419 17.5149 98.7902 17.6585C99.4738 17.7821 99.9557 17.8809 100.236 17.955ZM101.471 20.7844C101.397 20.4632 100.989 20.1049 100.236 19.6972H99.6921C100.275 20.0075 100.84 20.3498 101.385 20.7227L101.471 20.7844ZM103.213 41.2201C102.714 40.7562 102.119 40.4063 101.471 40.1947H100.236C100.891 40.3923 101.842 40.7136 103.127 41.1584L103.213 41.2201ZM103.819 23.3667V22.8972C103.8 22.4209 103.75 21.9463 103.671 21.4763C103.568 21.0958 103.391 20.7391 103.152 20.4261C103.513 21.3442 103.709 22.3187 103.732 23.3049L103.819 23.3667ZM111.516 36.2286C109.391 34.7459 108.069 34.0046 107.55 34.0046H107.427L111.516 36.2286ZM109.292 33.3992L108.563 33.1645V33.5228L108.983 33.6463L109.292 33.3992ZM116.013 41.0966C115.635 39.4801 114.891 37.9717 113.84 36.6868C112.788 35.4019 111.457 34.3746 109.947 33.6834L109.403 34.0417C110.967 34.7047 112.373 35.6899 113.53 36.9328C114.655 38.0816 115.479 39.4907 115.927 41.0348L116.013 41.0966ZM112.838 30.1003H109.823C110.466 30.5822 111.059 31.0393 111.751 31.4841C112.144 31.0466 112.481 30.5609 112.752 30.0386L112.838 30.1003ZM118.361 45.8534C117.607 50.7338 116.174 54.4404 114.098 56.9732C115.556 55.5351 116.63 53.7555 117.224 51.7963C117.916 49.8698 118.271 47.8386 118.275 45.7916L118.361 45.8534ZM116.681 46.8665V43.9013C116.558 46.4577 116.177 48.9953 115.544 51.4751C116.02 49.9493 116.371 48.3874 116.594 46.8048L116.681 46.8665Z" fill="#D7D7D7"/>
<path d="M155.069 62.916L152.956 65.0164H145.209L143.887 63.6697C142.157 65.2759 139.6 66.079 136.19 66.079C131.066 66.079 127.038 64.4769 124.106 61.2728C121.306 58.1839 119.905 54.0943 119.905 49.0039V38.5513C119.905 34.1446 119.905 30.6768 119.905 28.1481L120.091 27.6045C119.646 27.9257 119.407 30.3103 119.374 34.7582V27.9628L121.017 26.3442C121.455 25.8534 122.066 25.5522 122.722 25.5041C123.278 25.5041 124.18 25.5041 125.416 25.4176C126.651 25.3311 127.59 25.3187 128.22 25.3187C129.105 25.2584 129.981 25.5171 130.691 26.0477L132.607 27.9628C132.607 29.1365 132.607 30.6562 132.607 32.5343V46.7429C132.607 51.1496 134.151 53.3571 137.24 53.3653C140.316 53.3653 141.848 51.3514 141.799 47.3483L141.626 31.8424C141.557 31.1228 141.68 30.3978 141.984 29.7419C142.316 30.7521 142.499 31.8051 142.528 32.8679C142.602 33.9798 142.689 35.1041 142.763 36.2285C142.849 35.7096 142.948 34.3628 143.072 32.2007C143.183 29.7914 143.22 28.4941 143.183 28.1728C143.504 27.728 143.986 27.135 144.628 26.3689H151.177C150.638 26.5855 150.073 26.7268 149.496 26.789C149.052 26.789 148.471 26.789 147.754 26.789H146.012C144.888 26.789 144.171 27.0856 143.85 27.691V27.8763L144.381 27.2709C149.076 26.9496 151.885 26.8302 152.808 26.9126C151.317 27.1615 149.809 27.2814 148.298 27.2709C147.024 27.2384 145.75 27.3587 144.505 27.6292L144.023 28.111C144.023 28.5188 143.924 29.1118 143.85 29.9149C143.85 29.5937 143.726 29.0995 143.603 28.4199C143.412 28.7501 143.29 29.1159 143.245 29.4948C143.301 31.0781 143.471 32.6553 143.751 34.2146C144.04 35.7729 144.214 37.3504 144.27 38.9343C144.27 39.6138 144.27 40.7753 144.208 42.4185C144.146 44.0618 144.109 45.0625 144.208 45.9027V46.3722L144.814 45.6556V37.3652L145.407 45.112C145.407 52.97 142.561 56.899 136.869 56.899C135.663 56.9595 134.462 56.7096 133.38 56.1731C132.299 55.6366 131.373 54.8315 130.691 53.8348C129.382 51.753 128.771 49.3072 128.949 46.8541L129.308 30.508H127.874C127.658 31.1654 127.554 31.8546 127.566 32.5466C127.624 34.3759 127.827 36.1977 128.171 37.9953C128.509 39.7897 128.711 41.6069 128.776 43.4316C128.631 46.4729 128.973 49.5178 129.79 52.451C130.241 53.8837 131.165 55.121 132.41 55.9604C133.656 56.7997 135.149 57.1917 136.647 57.0719C137.332 57.029 138.013 56.9381 138.685 56.8001C139.736 56.6272 140.316 56.5283 140.428 56.5283L140.316 56.8372H140.428C140.959 56.8372 141.663 56.3553 142.713 55.3916C143.462 54.7738 144.058 53.9916 144.455 53.1059C144.859 51.9033 145.403 49.9388 146.086 47.2124C146.261 47.7165 146.34 48.2485 146.321 48.7815C146.462 51.3785 145.575 53.9267 143.85 55.8735C142.938 56.7776 141.847 57.4801 140.647 57.9356C139.446 58.3911 138.163 58.5893 136.882 58.5175C132.742 58.5175 130.024 56.6889 128.702 53.0441C127.969 51.0096 127.607 47.4636 127.615 42.4062C127.615 41.6401 127.615 40.4664 127.615 38.8602C127.615 37.254 127.615 36.0555 127.615 35.2524C127.564 34.4078 127.389 33.5752 127.096 32.7814C126.861 31.9445 126.507 31.1457 126.046 30.4091C125.651 30.4091 125.045 30.4091 124.242 30.2856L123.945 48.2008C123.836 50.4244 124.057 52.6519 124.6 54.8109C125.43 57.2682 127.149 59.3263 129.419 60.5809C131.597 61.9475 134.113 62.6792 136.684 62.6936C138.233 62.7841 139.781 62.4957 141.194 61.8535C142.39 60.9132 143.48 59.8442 144.443 58.6658L146.482 59.1971C146.457 59.32 146.458 59.4467 146.484 59.5694C146.51 59.692 146.561 59.8079 146.634 59.9099C146.707 60.0119 146.801 60.0977 146.908 60.1622C147.016 60.2266 147.136 60.2682 147.26 60.2843C147.227 60.5343 147.141 60.7743 147.007 60.9876C146.872 61.2009 146.693 61.3825 146.482 61.5199V61.8905C148.409 62.0388 150.188 62.1253 151.893 62.1253L152.857 38.6501L152.437 62.1253H152.61C152.883 61.1684 153.028 60.1796 153.042 59.1847C153.154 57.455 153.215 56.3553 153.215 55.8735L153.339 36.5745C153.339 35.8578 153.462 34.7706 153.574 33.3373H153.697C153.94 31.9884 154.039 30.6176 153.994 29.2477C153.971 28.8362 153.971 28.4237 153.994 28.0122C154.408 29.313 154.592 30.676 154.537 32.04C154.537 33.5968 154.537 35.7466 154.537 38.3413C154.537 41.5536 154.476 43.0981 154.476 42.9745L154.784 32.0895L155.019 31.9783C155.113 32.2926 155.175 32.6154 155.204 32.942L155.069 62.916ZM121.462 54.4403C121.043 50.1866 120.841 45.9144 120.857 41.6401V49.9306C120.93 51.4482 121.133 52.9569 121.462 54.4403ZM122.426 53.3653L122.129 46.5699V50.2765L122.426 53.3653ZM132.359 28.1728C131.67 27.118 130.749 26.2347 129.666 25.5905H126.293L125.218 25.8253C128.925 26.3442 131.198 27.135 132.125 28.1728C132.211 30.9775 132.224 34.4617 132.125 38.6378L132.359 28.1728ZM143.603 59.8519C141.762 62.1006 138.92 63.1755 135.065 63.1013C135.338 63.1017 135.611 63.1224 135.881 63.1631C136.132 63.1759 136.383 63.1759 136.634 63.1631C139.241 63.1631 141.119 62.6318 142.281 61.5446C142.651 61.0933 143.065 60.6795 143.516 60.309L143.603 59.8519ZM149.781 62.323C149.39 62.2545 149.006 62.1554 148.631 62.0264H146.346L146.469 62.2118C147.367 62.3139 148.272 62.3511 149.175 62.323H149.781Z" fill="#D7D7D7"/>
<path d="M177.79 28.111C177.714 29.6816 177.448 31.2373 176.999 32.7443C176.448 34.9435 175.83 36.2655 175.146 36.7103C173.554 36.7333 172.017 37.2951 170.785 38.3042C169.862 39.5621 169.423 41.1105 169.549 42.6656C169.549 43.2216 169.45 44.3459 169.376 46.0263C169.265 47.1263 169.224 48.2322 169.253 49.3375L169.549 59.1353C169.711 60.9468 169.221 62.7567 168.165 64.238L168.054 64.6581C168.419 64.4355 168.758 64.1746 169.067 63.8797C169.512 63.472 169.734 63.2002 169.734 63.0396L169.846 51.4997L169.969 63.0396C169.248 64.2534 168.21 65.2484 166.967 65.9184L166.843 65.7454H159.035C158.228 65.2063 157.482 64.5807 156.811 63.8797C156.287 63.08 156.052 62.1255 156.144 61.1739L156.329 49.0904C156.329 47.8549 156.267 45.8904 156.144 43.3204C156.02 40.7505 155.971 38.8355 155.971 37.5505C155.895 36.1258 155.969 34.697 156.193 33.2879L156.49 33.5227C157.15 36.7748 157.456 40.0889 157.404 43.4069C157.514 43.1414 157.556 42.8527 157.527 42.5668C157.527 41.1953 157.453 38.8602 157.293 35.4748C157.083 32.4601 157.008 30.1002 157.046 28.3829C157.475 29.0194 157.688 29.7779 157.651 30.545C157.651 32.0277 157.589 32.7813 157.589 32.8308C157.589 33.1891 157.849 34.6099 158.244 37.0934C158.504 38.5001 158.648 39.9257 158.676 41.356V42.9869L159.047 42.6286C159.16 42.3202 159.215 41.9933 159.208 41.6648C159.208 41.22 159.171 40.5776 159.097 39.7374C159.01 38.8972 158.973 38.2548 158.973 37.81H159.195C159.483 38.7908 159.649 39.8033 159.69 40.8247C159.69 41.7019 159.69 42.8262 159.69 44.1853V47.2495C159.69 48.485 159.776 50.6225 159.937 53.7484C160.048 56.4665 160.097 58.6164 160.048 60.1731L160.171 60.2349L160.233 60.1731C160.233 59.7778 160.295 59.0735 160.295 58.0727C160.295 57.0719 160.233 55.7252 160.11 53.7978C159.986 51.8703 159.937 50.4371 159.937 49.4734L160.295 49.5352C160.295 49.0904 160.295 48.4479 160.233 47.583C160.171 46.7182 160.171 46.0757 160.171 45.6309C160.131 44.8725 160.253 44.1141 160.53 43.4069C161.461 45.3261 161.782 50.9561 161.493 60.2967C162.717 60.5169 163.957 60.6367 165.2 60.655L165.497 44.7907C165.534 42.8837 165.779 40.9863 166.226 39.132C166.636 37.56 167.552 36.1665 168.833 35.1659C169.997 34.0679 171.532 33.4464 173.132 33.4238H173.49C173.972 33.4238 174.219 32.5219 174.219 30.718C174.219 29.5566 174.133 28.3952 174.096 27.2338H173.429C172.589 27.2497 171.756 27.3913 170.958 27.6539C170.137 27.8616 169.415 28.3515 168.919 29.0377V30.6068L168.437 30.545V31.0269H167.646C167.646 31.0269 167.152 30.9281 166.275 30.718L166.213 30.2362C165.324 29.7667 164.866 29.5195 164.829 29.5195C165.262 28.8771 165.707 28.284 166.151 27.7157L165.126 27.5427H165.719C166.151 27.5427 166.436 27.5427 166.559 27.2956C164.962 27.1982 163.373 26.996 161.802 26.6902H162.284C161.481 26.6902 160.307 26.5419 158.738 26.3813L159.282 25.9612H166.621C165.732 25.7671 164.825 25.6677 163.915 25.6647C162.346 25.6647 161.444 25.6647 161.086 25.6029V25.4176C161.71 25.2227 162.359 25.1228 163.013 25.121H166.621L167.758 26.2577C169.117 24.8245 171.551 24.0956 175.035 24.0956C175.728 24.6364 176.388 25.2181 177.012 25.8377C177.533 26.4792 177.808 27.2849 177.79 28.111ZM158.429 32.6207L158.158 33.3991L157.527 27.2214C158.075 28.9711 158.379 30.788 158.429 32.6207ZM166.843 65.2635C166.21 65.4139 165.565 65.513 164.916 65.5601L159.455 65.2635H166.843ZM168.412 51.9815V44.8278C168.241 47.2093 168.241 49.6001 168.412 51.9815ZM174.121 26.6655H173.392C172.568 26.709 171.757 26.8928 170.995 27.2091C170.198 27.4294 169.474 27.8556 168.894 28.4446C170.072 27.5818 171.467 27.0641 172.922 26.9496C173.336 26.9344 173.744 26.8378 174.121 26.6655ZM173.935 33.7574H173.392C172.364 33.9081 171.369 34.234 170.451 34.7211C171.575 34.2781 172.743 33.9551 173.935 33.7574Z" fill="#D7D7D7"/>
<path d="M213.312 59.9631C213.401 62.7506 212.876 65.5236 211.774 68.0857C210.672 70.6478 209.021 72.9365 206.936 74.7895C202.753 78.5412 197.282 80.533 191.665 80.3494C187.804 80.3469 184.05 79.0797 180.978 76.7416C177.784 74.4623 175.317 71.3088 173.874 67.6605C174.233 66.9704 174.646 66.3094 175.109 65.6836C175.357 65.3806 175.673 65.1408 176.032 64.984C176.391 64.8271 176.782 64.7578 177.172 64.7817L182.856 65.14L182.621 64.9052C179.661 62.8365 177.166 60.1727 175.294 57.0843C173.591 53.8862 172.74 50.3035 172.823 46.6811C172.796 44.0149 173.309 41.3707 174.33 38.9076C175.351 36.4446 176.86 34.2136 178.766 32.3489C180.595 30.4135 182.805 28.8776 185.257 27.8378C187.709 26.798 190.349 26.2769 193.012 26.3072C196.533 26.304 199.964 27.4203 202.81 29.4948C203.254 29.4207 203.514 29.0748 203.6 28.4693H209.123C207.468 28.8241 205.773 28.957 204.082 28.8647L203.477 29.1489V29.2601L211.174 29.013C208.761 29.1777 206.113 29.499 203.23 29.9767C204.395 30.8924 205.306 32.0922 205.874 33.4609C204.89 34.2132 203.736 34.7099 202.513 34.9065L202.39 34.7212L202.031 34.9065L201.797 34.7212L200.833 34.9065L201.129 34.1899L201.364 34.6099H201.611C202.093 34.6099 202.328 34.0045 202.328 32.8061C202.328 32.1265 201.611 31.4223 200.166 30.6933L199.993 30.5821V30.6933C199.08 30.2602 198.104 29.9765 197.102 29.8532L197.46 30.1003C196.568 29.9145 195.664 29.7947 194.754 29.7419C190.085 29.571 185.506 31.0593 181.83 33.9428C180.029 35.4127 178.594 37.2798 177.635 39.3978C176.677 41.5157 176.223 43.8268 176.308 46.1498C176.23 50.7708 177.807 55.2672 180.755 58.8264C182.145 60.6413 183.938 62.1077 185.992 63.1092C188.047 64.1107 190.306 64.6199 192.592 64.5964C194.112 64.5799 195.618 64.2955 197.04 63.7562C198.494 63.3787 199.77 62.5046 200.648 61.2851C198.45 63.2872 195.564 64.3629 192.592 64.2875C190.368 64.2936 188.172 63.7915 186.172 62.8193C184.172 61.8471 182.421 60.4307 181.052 58.6782C178.145 55.2791 176.565 50.9435 176.604 46.4711C176.437 43.4902 177.216 40.5328 178.828 38.02L178.952 38.5636C179.872 36.9259 181.072 35.4623 182.498 34.2393C184.458 32.386 186.002 31.5623 187.131 31.7682L186.945 32.0771C180.941 35.7919 177.934 40.7341 177.926 46.9035C177.926 53.493 180.533 58.1427 185.747 60.8527C187.979 62.1713 190.487 62.9537 193.074 63.1384C196.36 63.1384 199.313 61.5322 201.908 58.3322L205.763 60.0125V60.4326C205.763 60.5562 205.478 61.6681 204.922 63.682C204.278 66.2836 202.705 68.5599 200.499 70.0821C198.261 71.6 195.605 72.3817 192.901 72.3184C191.263 72.3514 189.639 72.0223 188.144 71.3547C186.732 70.614 185.367 69.7888 184.054 68.8837L178.531 68.7601L178.47 68.8837C179.815 71.5494 182.016 73.6859 184.721 74.9501C187.313 76.3974 190.229 77.1627 193.197 77.1741C197.253 77.1559 201.168 75.6829 204.231 73.0227C207.407 70.5524 209.523 66.9651 210.149 62.9902C210.589 59.5814 210.808 56.1476 210.804 52.7105C210.853 49.3004 210.894 45.8739 210.927 42.4309L210.754 60.2226C210.737 62.5086 210.243 64.7658 209.305 66.8506C208.367 68.9353 207.005 70.8017 205.305 72.3308C201.994 75.5736 197.535 77.3766 192.901 77.3471C190.595 77.3176 188.313 76.8696 186.167 76.025H185.92C188.202 77.2231 190.758 77.8024 193.333 77.7054C197.374 77.7029 201.28 76.2519 204.342 73.6157C207.527 71.1112 209.717 67.5548 210.519 63.5832C210.73 62.5311 210.87 61.4662 210.94 60.3955C210.94 56.343 211.026 52.3028 211.063 48.2502C211.052 44.1927 211.271 40.1378 211.718 36.1049H211.841C212.065 35.2005 212.144 34.2665 212.076 33.3373C212.04 32.2362 212.081 31.1338 212.2 30.0385C212.554 31.5733 212.716 33.1463 212.682 34.7212C212.682 36.525 212.682 38.959 212.682 41.9985V47.3483L212.978 34.6594H213.213C213.308 34.9523 213.37 35.2548 213.398 35.5613L213.312 59.9631ZM206.158 47.1506C206.207 48.7766 205.934 50.3961 205.355 51.9164C204.776 53.4366 203.903 54.8275 202.785 56.0094C201.663 57.1823 200.306 58.1047 198.803 58.7158C197.3 59.327 195.684 59.6131 194.062 59.5554C192.493 59.6173 190.93 59.3403 189.478 58.7433C188.026 58.1463 186.72 57.2433 185.648 56.0959C183.491 53.7038 182.348 50.5672 182.46 47.3483C182.428 45.1547 183.057 43.0023 184.264 41.1706C185.499 39.3689 187.363 38.0949 189.491 37.5999C187.523 38.4588 185.777 39.7563 184.388 41.393C183.165 43.1498 182.553 45.2594 182.646 47.3977C182.55 49.2811 182.977 51.1543 183.881 52.8094C183.881 52.8094 183.708 52.0186 183.375 50.5483C183.104 49.5585 182.93 48.5447 182.856 47.5213C182.855 45.0897 183.668 42.7278 185.166 40.8123C185.808 39.8815 186.666 39.12 187.667 38.5929C188.667 38.0658 189.781 37.7887 190.912 37.7853L193.197 38.02C193.738 37.8398 194.308 37.7603 194.878 37.7853C195.431 37.7564 195.985 37.8361 196.508 38.02H194.519C192.602 38.0844 190.726 38.6009 189.046 39.5274H189.169C189.918 39.2008 190.708 38.9764 191.517 38.8602L192.172 38.922L191.937 39.2185C187.65 40.5158 185.5 43.1228 185.5 47.0641C185.456 49.2934 186.275 51.4535 187.786 53.0935C188.471 53.9467 189.341 54.6343 190.329 55.1049C191.317 55.5755 192.399 55.8171 193.494 55.8117C195.015 55.745 196.494 55.2944 197.793 54.502C199.375 53.6248 200.19 52.6858 200.265 51.6603C198.461 54.1314 196.336 55.3669 193.889 55.3669C193.405 55.3369 192.925 55.2582 192.456 55.1322H193.173C194.196 55.2129 195.225 55.074 196.191 54.7245C197.156 54.375 198.036 53.8232 198.771 53.1059C199.506 52.3887 200.078 51.5226 200.451 50.5658C200.824 49.609 200.988 48.5836 200.932 47.5583C201.017 45.9612 200.584 44.3792 199.696 43.0486C198.601 41.8435 197.3 40.8435 195.854 40.0957C196.051 39.8239 196.249 39.6756 196.459 39.6756C197.234 39.7318 197.988 39.9607 198.663 40.3455C199.339 40.7303 199.92 41.2613 200.363 41.8996V41.7884C199.553 40.8042 198.525 40.0217 197.361 39.5027C196.175 39.0454 194.924 38.7785 193.654 38.7119C193.753 38.5865 193.882 38.488 194.029 38.4253C194.175 38.3627 194.336 38.3381 194.495 38.3536C195.178 38.3678 195.859 38.4298 196.533 38.539C197.583 38.6625 198.263 38.7119 198.584 38.7119L198.164 38.539C198.346 38.5338 198.526 38.5688 198.693 38.6414C198.859 38.714 199.008 38.8224 199.128 38.959L198.584 38.8355C199.132 39.0248 199.634 39.3258 200.059 39.7192C200.485 40.1126 200.824 40.59 201.055 41.1212L201.364 40.5776C201.282 40.2563 200.54 39.5768 199.14 38.539C200.734 38.7366 202.105 40.034 203.217 42.4432C204.099 44.2628 204.571 46.2533 204.601 48.2749C204.501 50.2392 203.764 52.1173 202.501 53.6248C201.322 55.1741 199.854 56.4792 198.176 57.4673L198.115 57.6527C200.095 56.8975 201.796 55.5534 202.989 53.8015C204.182 52.0496 204.809 49.9742 204.787 47.8549C204.758 47.2238 204.659 46.598 204.49 45.9892C204.316 45.4022 204.212 44.7967 204.181 44.1853V43.827L204.428 43.8888L202.785 40.1946H203.082C203.848 40.1946 204.589 41.183 205.305 43.1475C205.799 44.4329 206.086 45.788 206.158 47.163V47.1506ZM194.495 69.2173H194.26L192.752 69.279C190.346 69.296 188.024 68.3895 186.266 66.7462C187.058 67.613 188.024 68.3023 189.102 68.7687C190.18 69.2351 191.344 69.4679 192.518 69.452L194.495 69.2173ZM202.365 30.7427C200.363 28.5435 197.32 27.4438 193.234 27.4438C190.889 27.4811 188.568 27.9285 186.377 28.7659L186.562 28.8277C188.643 28.0646 190.834 27.6472 193.049 27.5921C196.434 27.4879 199.743 28.6113 202.365 30.7551V30.7427ZM198.658 29.8408C196.789 29.1567 194.817 28.7933 192.827 28.7659C190.986 28.8932 189.157 29.1533 187.353 29.5443L188.255 29.8408C189.085 29.809 189.912 29.7098 190.726 29.5443C191.541 29.3794 192.367 29.2802 193.197 29.2477C194.512 29.2664 195.821 29.428 197.102 29.7296L196.978 29.4825C197.541 29.5705 198.098 29.6943 198.646 29.8532L198.658 29.8408ZM197.089 66.7462C195.629 67.1997 194.108 67.4248 192.579 67.4134C191.06 67.3625 189.551 67.1387 188.082 66.7462C189.559 67.3061 191.124 67.5949 192.703 67.5987C194.209 67.6962 195.714 67.407 197.077 66.7585L197.089 66.7462ZM197.818 67.1168C196.396 67.5765 194.923 67.8587 193.432 67.957C192.044 67.9769 190.656 67.8943 189.281 67.7099C190.312 68.2025 191.436 68.472 192.579 68.5006C194.422 68.4957 196.233 68.0239 197.843 67.1292L197.818 67.1168ZM202.501 65.3747C201.777 66.6745 200.768 67.7941 199.551 68.6498C198.334 69.5055 196.939 70.0754 195.471 70.3169H195.891C197.274 70.1663 198.573 69.5776 199.597 68.6366C200.798 67.7898 201.787 66.6779 202.488 65.3871L202.501 65.3747Z" fill="#D7D7D7"/>
<path d="M257.383 45.7298C257.477 46.8333 257.25 47.9404 256.728 48.9174C255.997 49.6725 255.212 50.3745 254.381 51.0178C255.307 52.3769 255.764 53.0812 255.764 53.1183C255.764 53.8843 254.722 55.4081 252.638 57.6897C251.336 59.1716 249.91 60.5398 248.376 61.7794C244.887 64.2215 240.724 65.517 236.465 65.486C232.334 65.5454 228.292 64.2859 224.925 61.8905C221.565 59.4645 218.943 56.1542 217.352 52.3275C216.51 49.8314 216.145 47.1993 216.277 44.5684C216.165 41.7227 216.677 38.8871 217.776 36.26C218.875 33.6328 220.535 31.2775 222.64 29.3589C226.958 25.591 232.541 23.5959 238.269 23.7743C237.911 23.751 237.552 23.751 237.194 23.7743C230.819 23.7743 225.77 25.7182 222.047 29.606C218.546 33.2138 216.421 38.2424 215.671 44.6919V43.9012C215.583 41.2085 216.077 38.5285 217.12 36.0443C218.163 33.5601 219.729 31.3303 221.713 29.5072C223.61 27.5429 225.886 25.9829 228.402 24.9213C230.918 23.8596 233.623 23.3181 236.354 23.3296C239.24 23.2361 242.112 23.7736 244.769 24.9046C247.425 26.0356 249.803 27.7329 251.736 29.8779C255.56 34.2548 257.579 39.921 257.383 45.7298ZM220.057 55.1569C217.979 51.4602 216.962 47.2618 217.117 43.0239L217.055 46.7305C217.154 48.2589 217.501 49.761 218.081 51.1785C218.46 52.6262 219.133 53.9804 220.057 55.1569ZM252.453 45.3591C252.415 42.0935 251.502 38.8978 249.809 36.105C248.321 33.1685 245.825 30.8659 242.779 29.6184C240.412 28.8641 237.935 28.5174 235.452 28.5929C233.349 28.5444 231.261 28.9624 229.338 29.817C227.415 30.6715 225.706 31.9412 224.332 33.5351C221.543 36.6994 220.044 40.7958 220.132 45.0132C220.107 47.2423 220.532 49.4535 221.381 51.5148C222.23 53.576 223.486 55.445 225.074 57.0102C226.599 58.621 228.442 59.8983 230.485 60.7616C232.529 61.625 234.729 62.0556 236.947 62.0265C240.046 62.0483 243.088 61.1916 245.719 59.5554C248.406 57.9054 250.639 55.6125 252.218 52.8835L244.397 52.6982C243.104 53.5431 241.758 54.3065 240.37 54.9839C238.936 55.3379 237.458 55.4794 235.983 55.404C235.308 55.4024 234.639 55.2811 234.007 55.0457C234.87 55.0417 235.733 55.0995 236.589 55.2187C240.197 55.2187 242.783 54.2385 244.348 52.2781C243.224 52.8835 242.124 53.5136 241.061 54.082C239.812 54.7299 238.415 55.0408 237.009 54.9839C235.685 55.0556 234.363 54.8222 233.144 54.3016C231.925 53.7811 230.842 52.9873 229.979 51.9816H230.275C229.495 51.2093 228.844 50.3166 228.348 49.3375C228.074 49.4157 227.792 49.4573 227.508 49.4611H227.088V49.3993L228.237 49.1028C228.099 48.8643 228.015 48.5987 227.99 48.3244C227.971 48.2057 227.971 48.0848 227.99 47.9661C228.311 48.0773 228.57 48.4479 228.768 49.041C232.944 48.8433 235.18 48.7445 235.502 48.7445C235.873 48.7316 236.243 48.7947 236.589 48.9298L229.015 49.3499L229.139 49.5846H229.497C230.337 49.5846 231.412 49.5846 232.734 49.5846C234.464 49.4982 235.539 49.4611 235.983 49.4611L239.838 48.868C242.242 48.5062 244.674 48.3614 247.103 48.4356L252.218 48.6209L251.489 48.0155C250.41 47.9414 247.766 47.9414 243.557 48.0155L243.804 47.8425C247.165 47.4348 249.327 47.2371 250.291 47.2371C250.956 47.2288 251.621 47.2701 252.28 47.3607C252.327 47.033 252.356 46.7031 252.367 46.3722C252.453 45.9522 252.453 45.6062 252.453 45.3591ZM254.022 44.346C253.851 39.7279 251.94 35.3454 248.672 32.0777C245.404 28.81 241.022 26.8987 236.404 26.7273C234.226 26.6791 232.061 27.0812 230.046 27.9082C228.03 28.7352 226.207 29.9694 224.691 31.5335C227.607 28.6506 231.552 27.2091 236.527 27.2091C239.213 27.2005 241.862 27.8409 244.247 29.0756C246.633 30.3104 248.685 32.103 250.229 34.3011C250.954 35.2507 251.599 36.2591 252.157 37.3158C252.788 38.2977 253.209 39.4 253.392 40.5529L253.33 40.8L253.096 40.6764V40.973C253.114 41.6691 253.184 42.3629 253.306 43.0487C253.421 43.6937 253.491 44.346 253.516 45.0008C253.518 45.4684 253.456 45.9341 253.33 46.3846H253.936C254.009 45.7077 254.038 45.0267 254.022 44.346ZM246.325 39.5892C246.218 39.7484 246.075 39.8805 245.907 39.9749C245.74 40.0693 245.553 40.1233 245.361 40.1328C245.321 40.4941 245.321 40.8588 245.361 41.2201C245.231 41.2241 245.105 41.1794 245.007 41.0947C244.908 41.0101 244.845 40.8918 244.83 40.7629C244.743 40.4664 244.607 40.3181 244.397 40.3181L244.224 40.7382C243.897 40.4851 243.614 40.1805 243.384 39.8363C243.038 40.0653 242.674 40.2677 242.297 40.4417H242.544L242.235 40.8123L241.815 40.6888L242.297 40.5035H239.826C239.9 40.9112 239.987 41.1089 240.061 41.1089C240.135 41.1089 240.901 41.0471 241.865 40.9235L241.988 41.1706C240.811 41.4754 239.594 41.5963 238.38 41.529C237.551 41.5544 236.725 41.6453 235.909 41.8008C235.118 41.9473 234.317 42.0381 233.512 42.0726C232.747 42.0462 231.984 41.976 231.227 41.8626C230.45 41.7406 229.665 41.6704 228.879 41.6525C228.218 41.6326 227.557 41.6698 226.902 41.7637C228.33 42.022 229.776 42.1625 231.227 42.1838C231.902 42.1838 232.903 42.1344 234.229 42.0355C235.551 41.9367 236.539 41.8873 237.182 41.8873L237.058 42.1838C237.33 42.198 237.602 42.198 237.874 42.1838C238.14 42.1435 238.408 42.1229 238.677 42.122C239.02 42.1286 239.354 42.2313 239.641 42.4185C239.319 43.061 238.282 43.4193 236.515 43.5058C237.602 43.4193 236.441 43.3823 233.031 43.3823C232.664 43.3978 232.3 43.4475 231.943 43.5305C231.59 43.6127 231.23 43.6623 230.868 43.6788C230.19 43.651 229.516 43.56 228.854 43.407C227.952 43.234 227.298 43.1228 226.902 43.0857L224.678 40.071C225.642 37.8911 227.153 35.9973 229.064 34.5729C231.046 33.3531 233.35 32.7589 235.675 32.8679C240.477 32.8679 243.701 34.6882 245.349 38.3289C243.026 34.8447 240.081 33.1026 236.515 33.1026C235.85 33.07 235.185 33.1325 234.538 33.288C236.694 33.3923 238.83 33.7532 240.901 34.3629C242.856 35.3658 244.393 37.0293 245.238 39.0579H245.892C245.684 39.2752 245.502 39.5157 245.349 39.7745C245.681 39.7609 246.01 39.6984 246.325 39.5892ZM228.41 37.427C228.046 37.6305 227.736 37.9187 227.508 38.2671H227.878L228.41 37.427ZM231.659 36.525H231.301C230.918 36.6518 230.565 36.8567 230.265 37.1268C229.965 37.3969 229.725 37.7263 229.559 38.0942C230.176 37.4589 230.884 36.9177 231.659 36.488V36.525ZM244.163 49.807L229.559 50.0541C230.951 52.5252 233.496 53.7278 237.194 53.6619H237.787C233.982 53.6619 231.42 52.5582 230.102 50.3507V50.2395L233.117 52.0063C234.158 52.6003 235.341 52.9033 236.539 52.8835C238.461 52.9996 240.36 52.4207 241.889 51.2526C240.144 51.2931 238.398 51.2147 236.663 51.0178L236.478 50.8325C237.64 50.4316 238.856 50.2108 240.085 50.1777C241.321 50.1777 242.556 50.0788 243.792 49.9924L244.163 49.807ZM241.815 37.9088C240.327 36.8377 238.546 36.251 236.712 36.2285C235.621 36.2319 234.543 36.4678 233.549 36.9204C232.536 37.3776 231.523 37.8347 230.522 38.2671H237.256L241.815 37.9088ZM252.762 52.8835H252.404C250.799 55.811 248.401 58.2263 245.485 59.8519C242.655 61.6524 239.331 62.517 235.983 62.323C236.524 62.3974 237.069 62.4387 237.614 62.4465C240.787 62.4151 243.88 61.4527 246.51 59.6789C249.156 58.0039 251.313 55.6597 252.762 52.8835ZM243.026 39.2309L242.902 38.9343H242.544C242.054 38.9515 241.569 39.0304 241.099 39.1691C240.295 39.3297 239.863 39.4285 239.653 39.478H240.889C241.012 39.478 241.79 39.3915 243.026 39.2309ZM244.101 48.3738C242.977 48.485 242.136 48.5468 241.63 48.5468C242.029 48.4024 242.444 48.3029 242.865 48.2503L244.101 48.3738ZM252.342 52.4017H248.845C249.537 52.4017 250.538 52.4634 251.86 52.5746L252.342 52.4017Z" fill="#D7D7D7"/>
<path d="M280.228 28.111C280.157 29.6813 279.896 31.2371 279.45 32.7443C278.881 34.9436 278.214 36.2656 277.584 36.7104C275.992 36.7333 274.454 37.2951 273.222 38.3042C272.299 39.5621 271.861 41.1105 271.987 42.6656C271.987 43.2216 271.876 44.346 271.802 46.0263C271.69 47.1263 271.649 48.2323 271.678 49.3375L271.987 59.1353C272.144 60.9463 271.653 62.7543 270.603 64.2381L270.48 64.6581C270.848 64.4365 271.192 64.1755 271.505 63.8797C271.937 63.472 272.16 63.2002 272.16 63.0396L272.283 51.4997L272.407 63.0396C271.682 64.255 270.64 65.2502 269.392 65.9184L269.281 65.7454H261.46C260.653 65.2063 259.907 64.5807 259.236 63.8797C258.711 63.0809 258.48 62.1245 258.581 61.1739L258.754 49.0904C258.754 47.8549 258.693 45.8904 258.581 43.3205C258.47 40.7506 258.396 38.8355 258.396 37.5505C258.314 36.1254 258.392 34.6954 258.631 33.2879L258.915 33.5227C259.575 36.775 259.886 40.0886 259.842 43.407C259.939 43.1382 259.977 42.8516 259.953 42.5668C259.953 41.1953 259.879 38.8602 259.718 35.4748C259.52 32.4601 259.434 30.1003 259.483 28.3829C259.899 29.0251 260.107 29.7804 260.076 30.5451C260.076 32.0277 260.015 32.7814 260.015 32.8308C260.015 33.1891 260.274 34.61 260.682 37.0934C260.938 38.5004 261.079 39.926 261.102 41.356V42.9869L261.559 42.6656C261.666 42.3557 261.721 42.0299 261.72 41.7019C261.72 41.2571 261.72 40.6147 261.596 39.7745C261.472 38.9343 261.472 38.2919 261.472 37.8471H261.695C261.988 38.8271 262.158 39.8398 262.201 40.8617C262.201 41.739 262.201 42.8633 262.201 44.2224V47.2865C262.201 48.5221 262.276 50.6595 262.436 53.7854C262.56 56.5036 262.597 58.6534 262.56 60.2102L262.683 60.272V60.2102C262.719 59.5105 262.719 58.8095 262.683 58.1098C262.683 57.1832 262.683 55.7623 262.51 53.8348C262.337 51.9074 262.325 50.4742 262.325 49.5105L262.683 49.5723C262.683 49.1275 262.683 48.485 262.683 47.6201C262.683 46.7552 262.683 46.1128 262.683 45.668C262.636 44.9092 262.758 44.1495 263.042 43.444C263.956 45.3632 264.277 50.9931 264.005 60.3338C265.229 60.5551 266.469 60.675 267.712 60.6921L268.021 44.8278C268.048 42.9208 268.289 41.0228 268.737 39.1691C269.146 37.5931 270.068 36.1979 271.357 35.203C272.522 34.105 274.056 33.4835 275.656 33.4609H276.015C276.497 33.4609 276.731 32.559 276.731 30.7551C276.731 29.5937 276.657 28.4323 276.608 27.2709H275.953C275.113 27.288 274.28 27.4296 273.482 27.691C272.661 27.8987 271.939 28.3886 271.443 29.0748V30.6439L270.961 30.5821V31.064H270.183C270.183 31.064 269.676 30.9651 268.799 30.7551L268.737 30.2732C267.86 29.8037 267.391 29.5566 267.354 29.5566C267.798 28.9141 268.231 28.3211 268.676 27.7527L267.65 27.5798H268.317C268.762 27.5798 269.034 27.5798 269.158 27.3327C267.564 27.2351 265.98 27.0329 264.413 26.7273H264.895C264.092 26.7273 262.906 26.579 261.349 26.4184L261.88 25.9983H269.219C268.33 25.8042 267.423 25.7048 266.513 25.7018C264.957 25.7018 264.042 25.7018 263.684 25.64V25.4547C264.304 25.259 264.949 25.159 265.599 25.1581H269.207L270.356 26.2948C271.715 24.8616 274.137 24.1326 277.621 24.1326C278.314 24.6785 278.978 25.26 279.61 25.8747C280.066 26.5273 280.284 27.3168 280.228 28.111ZM260.867 32.6207L260.595 33.3991L259.965 27.2215C260.52 28.9695 260.823 30.7874 260.867 32.6207ZM269.293 65.2635C268.66 65.4139 268.015 65.5131 267.366 65.5601L261.893 65.2635H269.293ZM270.85 51.9815V44.8278C270.678 47.2093 270.678 49.6001 270.85 51.9815ZM276.558 26.6655H275.842C275.013 26.7074 274.198 26.8912 273.432 27.2091C272.638 27.4332 271.914 27.8588 271.332 28.4446C272.511 27.5836 273.905 27.0661 275.36 26.9496C275.774 26.9357 276.182 26.8391 276.558 26.6655ZM276.385 33.7574H275.842C274.809 33.9057 273.81 34.2318 272.889 34.7212C274.018 34.2803 275.19 33.9574 276.385 33.7574Z" fill="#D7D7D7"/>
<path d="M66.5203 27.4995C65.3278 29.4409 63.9847 31.2858 62.5034 33.0173H49.139C48.465 32.9876 47.8041 32.8209 47.1967 32.5273C46.5893 32.2337 46.0483 31.8194 45.6066 31.3097C44.4972 30.1756 43.4005 29.0669 42.3166 27.9965C40.7962 26.8235 38.9192 26.2073 36.9989 26.2507C35.5823 26.2213 34.1744 26.4782 32.8596 27.006C31.5448 27.5337 30.3502 28.3214 29.3475 29.3218C28.3304 30.3137 27.5291 31.5048 26.9937 32.8204C26.4583 34.136 26.2003 35.5478 26.236 36.9676C26.1831 38.4054 26.4225 39.8389 26.9398 41.1815C27.4571 42.5242 28.2414 43.748 29.2455 44.7791C30.2614 45.7887 31.4734 46.5798 32.8068 47.1036C34.1403 47.6274 35.5669 47.8728 36.9989 47.8247C38.4674 47.7813 39.9117 47.4405 41.2445 46.8228C42.5772 46.2051 43.7706 45.3234 44.7522 44.2312C44.831 44.2713 44.8961 44.3339 44.9393 44.411C44.9824 44.4882 45.0016 44.5764 44.9945 44.6644C44.8075 45.6732 44.2589 46.5793 43.4515 47.213C42.559 48.1244 41.4848 48.8382 40.2985 49.3079C39.1121 49.7777 37.8403 49.9931 36.5653 49.9401C35.1474 49.9222 33.7423 49.6681 32.4081 49.1882C31.047 48.8 29.7943 48.1021 28.7482 47.1493C28.7482 47.1493 28.6844 47.1493 28.6844 47.3277C28.6844 47.5061 29.0287 47.8502 29.7428 48.258C32.0122 49.5895 34.6106 50.2563 37.2412 50.1822C39.2957 50.2586 41.3137 49.6239 42.9542 48.3854L46.4228 45.0977C47.8566 43.9143 49.6642 43.2776 51.5237 43.3009L60.0294 43.4921C58.4248 44.0216 56.746 44.2926 55.0561 44.2949C56.2123 44.2949 54.5375 44.2949 50.0317 44.2949C49.2685 44.303 48.5193 44.5005 47.8515 44.8697C47.1837 45.239 46.6182 45.7684 46.206 46.4102C44.3442 48.8824 43.375 50.1694 43.2857 50.2331C41.5105 51.7293 39.2278 52.4866 36.9096 52.3485C33.8697 52.1739 30.942 51.1398 28.4676 49.3666L28.0723 49.0735C28.0977 49.5081 28.1836 49.937 28.3274 50.3479C29.067 51.4183 30.8778 52.1701 33.7215 52.5779C35.7915 52.9087 37.8936 52.9899 39.9829 52.82C38.6183 53.3346 37.1694 53.5897 35.7109 53.5718C33.5919 53.6328 31.4875 53.2046 29.5611 52.3206C27.6347 51.4365 25.9382 50.1204 24.6037 48.4746C21.9132 45.1263 20.5069 40.9284 20.6377 36.6363C20.5365 32.281 22.1112 28.0529 25.0373 24.8235C26.4473 23.2362 28.1888 21.9776 30.1389 21.1365C32.089 20.2954 34.2 19.8923 36.323 19.9556C38.9289 19.9529 41.4923 20.6152 43.7703 21.8798C46.0993 23.1354 48.1 24.9208 49.6108 27.0917L50.2867 26.9643C48.4823 25.0477 46.5661 23.2393 44.5482 21.5485C42.2356 20.1918 39.5747 19.5448 36.8969 19.688C34.73 19.5818 32.5643 19.918 30.5318 20.6761C28.4994 21.4341 26.6428 22.5982 25.0755 24.0971C21.9995 27.2696 20.229 31.4813 20.1149 35.8972L19.6176 35.5276C19.4584 35.8333 19.3919 36.1787 19.4263 36.5216C19.4263 41.4065 21.3306 46.1809 25.1393 50.8448H24.7057C20.0214 47.8629 17.6835 43.1098 17.692 36.5853C17.5739 34.0784 17.9808 31.5745 18.8867 29.2338C19.7926 26.893 21.1775 24.767 22.9528 22.9918C24.7281 21.2166 26.8547 19.8313 29.1965 18.9244C31.5383 18.0176 34.0438 17.6093 36.5526 17.7256C41.137 17.5241 45.6297 19.0525 49.139 22.0072C49.8497 22.7849 50.6169 23.509 51.4344 24.1736C51.9718 24.2362 52.5133 24.2575 53.054 24.2373H54.9158C54.1414 23.2343 53.4383 22.1783 52.8117 21.077C52.1937 19.9915 51.4395 18.9895 50.5673 18.0951C48.6038 16.5083 46.3199 15.3649 43.8723 14.7437C41.4404 13.9842 38.9092 13.5891 36.3613 13.5713C33.1102 13.4822 29.876 14.0694 26.8641 15.2956C23.8521 16.5219 21.1282 18.3605 18.8652 20.6947C15.273 24.6574 12.9472 29.6019 12.186 34.8943C11.4249 40.1867 12.2631 45.5857 14.5932 50.3988C15.6644 52.3018 18.1426 54.8207 22.0277 57.9555C26.4371 61.5655 31.9617 63.5378 37.662 63.5369C43.4235 63.4582 49.0342 61.6853 53.7936 58.4397C49.2651 62.1305 43.568 64.0869 37.7258 63.9574C28.8757 63.9574 21.2456 59.765 14.8355 51.38C12.5146 48.3217 11.3584 43.6492 11.3669 37.3627C11.4052 36.4054 11.5074 35.4518 11.6729 34.5082C11.8545 33.5508 11.9357 32.577 11.9152 31.6028H11.8004C11.2405 33.9138 10.9664 36.2847 10.9843 38.6624C10.7969 43.2552 11.987 47.7992 14.4019 51.7113C17.0114 55.4491 20.479 58.5079 24.5144 60.6315C28.3386 62.9482 32.695 64.2428 37.1647 64.3907C46.1932 64.3907 53.8446 60.7717 60.1187 53.5336L60.2335 53.9669C61.7214 51.6863 63.0507 49.3062 64.2122 46.8435C64.3393 47.0915 64.4008 47.3679 64.3907 47.6463C64.3907 49.133 63.4215 51.2186 61.4832 53.9032C60.1407 55.8739 58.5792 57.6865 56.8286 59.3062C54.9963 60.8613 52.9993 62.2116 50.8733 63.333V63.5114C53.2979 62.4528 55.5234 60.9875 57.4535 59.1788C59.429 57.4193 61.1768 55.4202 62.6564 53.2278L63.4088 52.8455C63.0865 53.8189 62.627 54.7414 62.0443 55.5853C59.2134 59.5206 55.467 62.7088 51.1284 64.8749C46.7824 67.0745 41.9724 68.2018 37.1009 68.1627C27.8853 68.1627 19.5326 64.1528 12.0427 56.1332C8.11504 51.8855 6.1512 45.6244 6.1512 37.3499C6.0198 32.046 7.30511 26.8029 9.87485 22.1602C12.6642 17.6314 16.4661 13.8105 20.9821 10.9972C22.6405 9.91986 24.4324 9.0631 26.3125 8.44862C29.5146 7.49795 32.8426 7.03821 36.1827 7.0851C41.4953 6.99725 46.7489 8.20907 51.4854 10.6149C56.2439 13.0722 60.2194 16.811 62.9624 21.4083C63.3705 22.1092 63.8806 23.1669 64.5055 24.5686C65.0475 25.5773 65.4263 26.6655 65.6277 27.7926C65.257 28.5995 64.7622 29.3434 64.1612 29.9972C63.6229 30.7671 63.0122 31.484 62.3376 32.138L60.6033 32.3801C60.7323 32.4638 60.883 32.5081 61.0369 32.5075L62.5161 32.4438C63.2303 31.5391 63.9316 30.6471 64.633 29.7805C65.346 29.0197 65.92 28.1398 66.329 27.1809C66.1682 26.1549 65.8133 25.1689 65.2834 24.2755C64.8163 23.3118 64.2523 22.3981 63.6001 21.5485C59.7064 16.6297 56.3355 13.2315 53.4875 11.354C49.3785 8.83198 44.8322 7.10297 40.0849 6.25681H41.5769C43.0268 6.45727 44.4593 6.76825 45.8617 7.18704C49.9168 8.3214 53.6534 10.3803 56.7776 13.2018C60.01 15.8788 62.7057 19.1433 64.7223 22.8228C65.1303 23.5619 65.5384 24.3265 65.921 25.1166C66.3093 25.8513 66.5149 26.6686 66.5203 27.4995ZM41.5132 8.71621C39.9756 8.65635 38.4427 8.50744 36.9224 8.27021C34.6226 8.30927 32.3343 8.60418 30.0999 9.14949C27.8828 9.59893 25.7375 10.3492 23.7238 11.3795L23.5963 11.6853C28.2227 9.64488 33.2173 8.5695 38.2741 8.52507C39.3567 8.52206 40.4384 8.58589 41.5132 8.71621ZM33.8618 10.8825H33.543C30.5081 11.1742 27.5476 11.9936 24.795 13.3037C27.6772 12.0173 30.7467 11.1999 33.8873 10.8825H33.8618ZM40.2379 10.6277C40.1487 10.6277 39.4983 10.411 38.2486 10.0797C37.6219 9.89646 36.9754 9.7895 36.323 9.76115H35.4559L40.2379 10.6277ZM42.7119 50.9977C41.5181 51.5194 40.2962 51.9746 39.052 52.3612L40.0467 52.5397C40.6715 52.2975 41.1434 52.0809 41.4749 51.9152C41.9464 51.7106 42.3618 51.396 42.6864 50.9977H42.7119ZM59.5321 32.3928C55.0112 32.2983 50.5154 31.6955 46.1295 30.5961L45.4536 30.0991L45.5684 30.5324C46.6961 31.2808 47.9019 31.9046 49.1645 32.3928C50.501 32.7557 51.8909 32.8808 53.2707 32.7624L59.5321 32.3928ZM62.5034 44.486H60.4375C59.277 44.486 57.0837 44.6134 53.8573 44.8556C51.8069 44.9062 49.7678 45.1753 47.7745 45.6584L47.5322 46.2828C47.9403 45.8241 48.2591 45.5947 48.4631 45.5947C55.8764 45.5522 60.5565 45.1826 62.5034 44.486ZM60.7691 28.6719C60.6732 28.2648 60.5276 27.871 60.3355 27.4995C60.3355 27.7034 60.3355 27.9965 60.3355 28.366C60.3355 28.7356 60.3992 29.0032 60.3992 29.1688C60.464 29.1613 60.5265 29.1405 60.5828 29.1076C60.639 29.0747 60.6879 29.0305 60.7262 28.9778C60.7646 28.9252 60.7916 28.8651 60.8055 28.8015C60.8195 28.7379 60.8201 28.672 60.8073 28.6081L60.7691 28.6719ZM62.2993 26.6457H61.4322C61.2154 26.6457 60.9731 26.8114 60.6798 27.1427H61.955L62.2993 26.6457Z" fill="#D7D7D7"/>
</svg>
